<svg xmlns="http://www.w3.org/2000/svg" xmlns:xlink="http://www.w3.org/1999/xlink" width="500" zoomAndPan="magnify" viewBox="0 0 375 374.999991" height="500" preserveAspectRatio="xMidYMid meet" version="1.0"><defs><g/><clipPath id="1a22f54d42"><path d="M 187.5 0 C 83.945312 0 0 83.945312 0 187.5 C 0 291.054688 83.945312 375 187.5 375 C 291.054688 375 375 291.054688 375 187.5 C 375 83.945312 291.054688 0 187.5 0 Z M 187.5 0 " clip-rule="nonzero"/></clipPath></defs><g clip-path="url(#1a22f54d42)"><rect x="-37.5" width="450" fill="#fff2e6" y="-37.499999" height="449.999989" fill-opacity="1"/></g><path stroke-linecap="butt" transform="matrix(0.675178, 0, 0, 0.675178, 42.424871, 2.110448)" fill="none" stroke-linejoin="miter" d="M 310.694996 407.998611 L 310.694996 349.813702 L 192.444885 349.813702 L 310.694996 202.983154 L 310.694996 152.828537 L 119.032503 152.828537 L 119.032503 211.389505 L 238.399219 211.389505 L 119.032503 358.682894 L 119.032503 407.998611 Z M 310.694996 407.998611 " stroke="#ff8905" stroke-width="23.910875" stroke-opacity="1" stroke-miterlimit="4"/><g fill="#ff8905" fill-opacity="1"><g transform="translate(117.622793, 277.582969)"><g><path d="M 134.578125 0 L 134.578125 -39.265625 L 54.765625 -39.265625 L 134.578125 -138.453125 L 134.578125 -172.28125 L 5.171875 -172.28125 L 5.171875 -132.765625 L 85.75 -132.765625 L 5.171875 -33.3125 L 5.171875 0 Z M 134.578125 0 "/></g></g></g><path stroke-linecap="butt" transform="matrix(0.675178, 0, 0, 0.675178, 58.539884, -6.036602)" fill="none" stroke-linejoin="miter" d="M 278.050564 408.002342 L 278.050564 349.811646 L 159.806238 349.811646 L 278.050564 202.986884 L 278.050564 152.826481 L 86.393857 152.826481 L 86.393857 211.393235 L 205.760572 211.393235 L 86.393857 358.686624 L 86.393857 408.002342 Z M 278.050564 408.002342 " stroke="#ff8905" stroke-width="26.301962" stroke-opacity="1" stroke-miterlimit="4"/><g fill="#fff2e6" fill-opacity="1"><g transform="translate(111.699582, 269.435919)"><g><path d="M 134.578125 0 L 134.578125 -39.265625 L 54.765625 -39.265625 L 134.578125 -138.453125 L 134.578125 -172.28125 L 5.171875 -172.28125 L 5.171875 -132.765625 L 85.75 -132.765625 L 5.171875 -33.3125 L 5.171875 0 Z M 134.578125 0 "/></g></g></g></svg>